<svg version="1.0" xmlns="http://www.w3.org/2000/svg" width="50.000000pt" height="50.000000pt"
    viewBox="0 0 50.000000 50.000000" preserveAspectRatio="xMidYMid meet">
    <g transform="translate(0.000000,50.000000) scale(0.100000,-0.100000)" fill="#000000" stroke="none">
        <path d="M51 337 c-25 -73 -31 -109 -31 -175 l0 -82 230 0 230 0 0 82 c0 66 -6 102 -31 175 l-31 93 -168 0 -168 0 -31 -93z m376 -1 c12 -39 23 -74 23 -78 0 -4 -31 -8 -69 -8 -65 0 -69 -1 -75 -25 -14 -56 -98 -56 -112 0 -6 24 -10 25 -75 25 -38 0 -69 4 -69 8 0 7 26 89 45 140 3 10 40 12 156 10 l152 -3 24 -69z" />
    </g>
</svg>