<svg xmlns="http://www.w3.org/2000/svg" version="1.1" xmlns:xlink="http://www.w3.org/1999/xlink" xmlns:svgjs="http://svgjs.dev/svgjs" width="1000" height="1000" viewBox="0 0 1000 1000"><rect width="1000" height="1000" fill="#000000"></rect><g transform="matrix(0.7,0,0,0.7,149.5757603521232,282.1265587044535)"><svg viewBox="0 0 396 247" data-background-color="#333333" preserveAspectRatio="xMidYMid meet" height="623" width="1000" xmlns="http://www.w3.org/2000/svg" xmlns:xlink="http://www.w3.org/1999/xlink"><defs></defs><g id="tight-bounds" transform="matrix(1,0,0,1,0.2399984293703028,-0.09999999999999432)"><svg viewBox="0 0 395.52 247.2" height="247.2" width="395.52"><g><svg></svg></g><g><svg viewBox="0 0 395.52 247.2" height="247.2" width="395.52"><g><path d="M116.428 244.683c-22.842 0-42.956-4.99-60.342-14.969-17.342-9.979-30.87-24.061-40.583-42.246-2.274-4.276-4.28-8.73-6.018-13.362l42.854 0c5.836 10.497 13.893 18.965 24.172 25.404 12.064 7.584 27.299 11.376 45.705 11.376 5.012 0 10.778-0.399 17.298-1.197 6.564-0.843 12.84-2.218 18.827-4.125v-31.458h36.259v52.947c-8.782 4.879-19.87 9.026-33.265 12.441-13.439 3.46-28.408 5.189-44.907 5.189zM16.501 59.466c10.379-18.14 24.66-32.156 42.845-42.047 18.185-9.935 39.03-14.903 62.537-14.902 12.419 0 24.283 1.308 35.594 3.925 11.31 2.617 21.134 5.788 29.472 9.514l-3.859 33.131c-8.738-3.681-18.162-6.742-28.275-9.181-10.068-2.439-20.868-3.659-32.399-3.659-18.761 0-34.174 3.859-46.238 11.576-10.202 6.503-18.169 14.926-23.9 25.271l-42.335 0c1.887-4.723 4.073-9.266 6.558-13.628zM304.04 244.683c-9.536 0-19.227-0.798-29.073-2.395-9.802-1.641-18.85-3.681-27.144-6.121-8.338-2.439-15.169-4.879-20.491-7.318l4.657-38.587c6.786 3.326 14.415 6.542 22.886 9.647 8.471 3.105 17.431 5.722 26.878 7.85 9.403 2.085 18.939 3.127 28.608 3.127 13.395 0 24.084-2.506 32.067-7.518 7.984-5.056 11.975-12.907 11.975-23.551 0-1.995-0.132-3.898-0.395-5.711l40.4 0c0.074 1.433 0.112 2.893 0.112 4.381 0 8.649-1.53 16.898-4.591 24.748-3.06 7.895-8.072 14.969-15.035 21.223-7.008 6.254-16.3 11.199-27.876 14.836-11.576 3.593-25.902 5.389-42.978 5.389zM228.197 66.851c0-12.507 3.171-23.618 9.514-33.331 6.387-9.713 15.79-17.298 28.208-22.753 12.419-5.5 27.787-8.25 46.105-8.25 14.858 0 28.674 1.641 41.448 4.923 12.818 3.238 23.551 6.742 32.2 10.512l-3.659 37.921c-12.862-6.875-25.037-11.864-36.525-14.969-11.443-3.105-23.219-4.657-35.327-4.657-13.084 0-23.64 2.329-31.668 6.986-8.028 4.657-12.042 12.042-12.042 22.154 0 2.773 0.277 5.341 0.831 7.707l-38.863 0c-0.148-2.018-0.222-4.099-0.222-6.243z" fill="#7fc37e" data-fill-palette-color="tertiary"></path></g><g transform="matrix(1,0,0,1,0,80.2636743592628)"><svg viewBox="0 0 395.52 86.6726512814744" height="86.6726512814744" width="395.52"><g><svg viewBox="0 0 395.52 86.6726512814744" height="86.6726512814744" width="395.52"><g><svg viewBox="0 0 395.52 86.6726512814744" height="86.6726512814744" width="395.52"><g><svg viewBox="0 0 395.52 86.6726512814744" height="86.6726512814744" width="395.52"><g><svg viewBox="0 0 395.52 86.6726512814744" height="86.6726512814744" width="395.52"><g><svg viewBox="0 0 395.52 49.13627303754266" height="49.13627303754266" width="395.52"><g transform="matrix(1,0,0,1,0,0)"><svg width="395.52" viewBox="1.8799999952316284 -35.70000076293945 292.9700012207031 36.400001525878906" height="49.13627303754266" data-palette-color="#7fc37e"><path d="M19.23 0.7L19.23 0.7Q14.08 0.7 10.16-1.55 6.25-3.8 4.06-7.9 1.88-12 1.88-17.55L1.88-17.55Q1.88-23.05 4.21-27.14 6.55-31.23 10.65-33.46 14.75-35.7 20.05-35.7L20.05-35.7Q22.85-35.7 25.4-35.11 27.95-34.52 29.83-33.68L29.83-33.68 29.25-28.7Q27.28-29.53 25-30.08 22.73-30.63 20.13-30.63L20.13-30.63Q15.9-30.63 13.18-28.89 10.45-27.15 9.14-24.19 7.83-21.23 7.83-17.57L7.83-17.57Q7.83-13.75 9.16-10.78 10.5-7.8 13.23-6.09 15.95-4.38 20.1-4.38L20.1-4.38Q21.23-4.38 22.7-4.56 24.18-4.75 25.53-5.18L25.53-5.18 25.53-12.83 20.3-12.83 20.3-17.55 30.98-17.55 30.98-1.95Q29-0.85 25.98-0.08 22.95 0.7 19.23 0.7ZM56.35-13.83L56.35-8.95 41.5-8.95 41.5-13.83 56.35-13.83ZM58.65 0L48.17-29.68 49.67-29.68 39.2 0 33.7 0 46.2-35 51.65-35 64.15 0 58.65 0ZM72.45 0L66.75 0 71.5-35 76.07-35 84.97-18.25 93.82-35 98.42-35 103.15 0 97.45 0 94-27.6 95.45-27.33 85.02-7.9 74.45-27.3 75.9-27.58 72.45 0ZM131.42 0L109.14 0 109.14-35 130.94-35 130.94-29.9 114.67-29.9 114.67-20.83 127.49-20.83 127.49-15.73 114.67-15.73 114.67-5.1 131.42-5.1 131.42 0ZM158.46 0.7L158.46 0.7Q156.31 0.7 154.1 0.34 151.89-0.03 150.01-0.58 148.14-1.13 146.94-1.68L146.94-1.68 147.64-7.48Q149.16-6.73 151.08-6.03 152.99-5.33 155.11-4.85 157.24-4.38 159.41-4.38L159.41-4.38Q162.44-4.38 164.24-5.51 166.04-6.65 166.04-9.05L166.04-9.05Q166.04-10.85 165.09-11.99 164.14-13.13 162.23-13.96 160.31-14.8 157.36-15.73L157.36-15.73Q154.54-16.63 152.2-17.82 149.86-19.03 148.46-20.96 147.06-22.9 147.06-26.03L147.06-26.03Q147.06-28.85 148.5-31.04 149.94-33.23 152.74-34.46 155.54-35.7 159.66-35.7L159.66-35.7Q163.01-35.7 165.9-34.96 168.79-34.23 170.74-33.38L170.74-33.38 170.19-27.68Q167.29-29.23 164.7-29.93 162.11-30.63 159.39-30.63L159.39-30.63Q156.44-30.63 154.63-29.58 152.81-28.53 152.81-26.25L152.81-26.25Q152.81-24.6 153.69-23.59 154.56-22.58 156.26-21.85 157.96-21.13 160.41-20.35L160.41-20.35Q164.14-19.23 166.74-17.8 169.34-16.38 170.7-14.33 172.06-12.28 172.06-9.25L172.06-9.25Q172.06-7.3 171.38-5.53 170.69-3.75 169.11-2.34 167.54-0.93 164.93-0.11 162.31 0.7 158.46 0.7ZM189.86 0L184.41 0 184.41-29.9 174.34-29.9 174.34-35 199.94-35 199.94-29.9 189.86-29.9 189.86 0ZM218.86 0.7L218.86 0.7Q213.86 0.7 209.96-1.55 206.06-3.8 203.83-7.89 201.61-11.98 201.61-17.5L201.61-17.5Q201.61-23.03 203.83-27.11 206.06-31.2 209.96-33.45 213.86-35.7 218.86-35.7L218.86-35.7Q223.86-35.7 227.76-33.45 231.66-31.2 233.88-27.11 236.11-23.03 236.11-17.5L236.11-17.5Q236.11-11.98 233.88-7.89 231.66-3.8 227.76-1.55 223.86 0.7 218.86 0.7ZM218.86-4.58L218.86-4.58Q222.66-4.58 225.21-6.28 227.76-7.98 229.05-10.91 230.33-13.85 230.33-17.5L230.33-17.5Q230.33-21.15 229.05-24.09 227.76-27.03 225.21-28.73 222.66-30.43 218.86-30.43L218.86-30.43Q215.06-30.43 212.51-28.73 209.96-27.03 208.67-24.09 207.38-21.15 207.38-17.5L207.38-17.5Q207.38-13.85 208.67-10.91 209.96-7.98 212.51-6.28 215.06-4.58 218.86-4.58ZM247.53 0L241.93 0 241.93-35 253.91-35Q257.56-35 260.27-33.86 262.98-32.73 264.48-30.38 265.98-28.03 265.98-24.38L265.98-24.38Q265.98-20.68 264.39-18.31 262.81-15.95 259.96-14.58L259.96-14.58 267.83 0 261.46 0 254.51-13.38Q254.43-13.38 254.38-13.38 254.33-13.38 254.26-13.38L254.26-13.38 247.53-13.38 247.53 0ZM247.53-30.28L247.53-18.1 253.16-18.1Q256.88-18.1 258.59-19.78 260.31-21.45 260.31-24.23L260.31-24.23Q260.31-27.1 258.61-28.69 256.91-30.28 253.26-30.28L253.26-30.28 247.53-30.28ZM294.85 0L272.58 0 272.58-35 294.38-35 294.38-29.9 278.1-29.9 278.1-20.83 290.93-20.83 290.93-15.73 278.1-15.73 278.1-5.1 294.85-5.1 294.85 0Z" opacity="1" transform="matrix(1,0,0,1,0,0)" fill="#ffffff" class="undefined-text-0" data-fill-palette-color="primary" id="text-0"></path></svg></g></svg></g><g transform="matrix(1,0,0,1,0,56.30643454427303)"><svg viewBox="0 0 395.52 30.366216737201366" height="30.366216737201366" width="395.52"><g transform="matrix(1,0,0,1,0,0)"><svg width="395.52" viewBox="4.489999771118164 -38.040000915527344 643.6199951171875 49.42000198364258" height="30.366216737201366" data-palette-color="#7fc37e"><path d="M39.21-24.51L39.21-24.51Q39.21-23.44 39.09-21.92 38.96-20.41 38.7-18.85 38.43-17.29 37.94-15.92 37.45-14.55 36.72-13.77L36.72-13.77Q36.43-13.43 34.84-13.11 33.25-12.79 31.03-12.48 28.81-12.16 26.27-11.87 23.73-11.57 21.46-11.35 19.19-11.13 17.53-10.99 15.87-10.84 15.43-10.84L15.43-10.84 15.04-0.68Q13.53-0.59 12.06-0.66 10.6-0.73 9.08-0.73L9.08-0.73Q8.11-0.73 7.13-0.68 6.15-0.63 5.18-0.54L5.18-0.54Q5.18-5.13 5.18-9.62 5.18-14.11 4.98-18.7L4.98-18.7Q4.83-22.85 4.71-26.95 4.59-31.05 4.49-35.21L4.49-35.21Q9.52-35.55 14.62-36.06 19.73-36.57 24.8-36.57L24.8-36.57Q25.68-36.57 27.59-36.4 29.49-36.23 31.59-35.86 33.69-35.5 35.47-34.96 37.26-34.42 37.84-33.74L37.84-33.74Q38.23-33.3 38.5-32.03 38.77-30.76 38.92-29.32 39.06-27.88 39.14-26.51 39.21-25.15 39.21-24.51ZM25.54-24.85L25.54-24.85Q25.54-25.29 25.49-25.98 25.44-26.66 25.32-27.32 25.2-27.98 24.95-28.54 24.71-29.1 24.32-29.35L24.32-29.35Q24.07-29.49 23.54-29.59 23-29.69 22.41-29.74 21.83-29.79 21.29-29.81 20.75-29.83 20.51-29.83L20.51-29.83Q18.7-29.83 16.89-29.64 15.09-29.44 13.23-29.15L13.23-29.15Q13.38-27.69 13.4-26.27 13.43-24.85 13.43-23.44L13.43-23.44Q13.43-21.14 13.57-18.8L13.57-18.8Q14.21-18.8 15.77-18.87 17.33-18.95 19.04-19.12 20.75-19.29 22.27-19.6 23.78-19.92 24.32-20.46L24.32-20.46Q25.2-21.29 25.37-22.49 25.54-23.68 25.54-24.85ZM68.73-36.52L79.62-37.55Q79.23-32.81 78.86-28.13 78.49-23.44 78.25-18.7L78.25-18.7Q78.01-14.4 77.74-10.18 77.47-5.96 77.23-1.66L77.23-1.66 69.75-1.27Q69.75-5.71 69.78-10.08 69.8-14.45 69.71-18.9L69.71-18.9Q69.61-23.34 69.32-27.71 69.02-32.08 68.73-36.52L68.73-36.52ZM143.27-22.02L143.27-22.02Q143.27-17.92 142.98-13.87 142.68-9.81 142.39-5.76L142.39-5.76Q136.92-5.27 131.5-4.93 126.08-4.59 120.61-4.59L120.61-4.59Q120.12-4.59 118.81-4.61 117.49-4.64 116.02-4.71 114.56-4.79 113.24-4.91 111.92-5.03 111.48-5.27L111.48-5.27Q109.87-6.15 109.24-7.5 108.6-8.84 108.6-10.55L108.6-10.55Q108.6-11.13 108.65-12.11 108.7-13.09 108.85-14.16 108.99-15.23 109.24-16.16 109.48-17.09 109.82-17.53L109.82-17.53Q110.26-18.12 111.82-18.53 113.39-18.95 115.56-19.19 117.73-19.43 120.25-19.58 122.76-19.73 125.06-19.8 127.35-19.87 129.16-19.87 130.96-19.87 131.75-19.87L131.75-19.87Q131.89-20.95 131.89-21.97L131.89-21.97Q131.89-22.07 131.89-22.49 131.89-22.9 131.84-23L131.84-23Q131.7-23.29 130.92-23.49 130.13-23.68 128.99-23.78 127.84-23.88 126.5-23.95 125.15-24.02 123.88-24.02 122.61-24.02 121.64-24.02 120.66-24.02 120.22-24.02L120.22-24.02Q117.15-24.02 114.07-23.9 110.99-23.78 107.92-23.68L107.92-23.68Q108.11-25.54 108.23-27.44 108.36-29.35 108.26-31.2L108.26-31.2Q111.82-31.84 115.41-32.1 119-32.37 122.66-32.37L122.66-32.37Q123.98-32.37 125.54-32.35 127.11-32.32 128.67-32.25 130.23-32.18 131.77-32.03 133.31-31.88 134.63-31.64L134.63-31.64Q135.99-31.4 137.34-30.76 138.68-30.13 139.85-29.2 141.02-28.27 141.9-27.08 142.78-25.88 143.17-24.51L143.17-24.51Q143.22-24.37 143.24-24.02 143.27-23.68 143.27-23.27 143.27-22.85 143.27-22.51 143.27-22.17 143.27-22.02ZM132.38-10.55L132.38-10.55 132.38-16.8Q130.96-16.85 129.55-16.87 128.13-16.89 126.72-16.89L126.72-16.89Q126.42-16.89 125.08-16.87 123.74-16.85 122.2-16.75 120.66-16.65 119.39-16.5 118.12-16.36 117.93-16.06L117.93-16.06Q117.68-15.67 117.61-15.26 117.54-14.84 117.54-14.4L117.54-14.4Q117.54-14.06 117.59-13.48 117.63-12.89 117.76-12.26 117.88-11.62 118.02-11.08 118.17-10.55 118.42-10.3L118.42-10.3Q118.61-10.06 119.07-9.94 119.54-9.81 120.08-9.74 120.61-9.67 121.15-9.64 121.69-9.62 121.98-9.62L121.98-9.62Q123.15-9.62 124.49-9.72 125.84-9.81 127.23-9.94 128.62-10.06 129.94-10.23 131.26-10.4 132.38-10.55ZM206.72-9.62L206.72-9.62Q206.72-9.08 206.72-8.06 206.72-7.03 206.68-5.74 206.63-4.44 206.55-3.05 206.48-1.66 206.38-0.42 206.29 0.83 206.11 1.78 205.94 2.73 205.75 3.13L205.75 3.13Q204.92 4.44 204.21 5.15 203.5 5.86 202.67 6.15 201.84 6.45 200.79 6.47 199.74 6.49 198.33 6.49L198.33 6.49Q193.64 6.49 189 6.13 184.36 5.76 179.72 5.27L179.72 5.27 179.72-1.42Q180.16-1.42 181.65-1.44 183.14-1.46 185.14-1.51 187.14-1.56 189.39-1.66 191.64-1.76 193.59-1.9 195.54-2.05 196.96-2.25 198.37-2.44 198.72-2.73L198.72-2.73Q199.16-3.08 199.42-3.78 199.69-4.49 199.82-5.27 199.94-6.05 199.99-6.84 200.04-7.62 200.04-8.11L200.04-8.11Q200.04-8.59 200.04-9.03 200.04-9.47 199.99-10.01L199.99-10.01Q199.25-8.35 198.03-7.52 196.81-6.69 195.3-6.35 193.79-6.01 192.12-5.98 190.46-5.96 188.95-5.96L188.95-5.96Q185.78-5.96 182.82-6.23 179.87-6.49 177.6-7.62 175.33-8.74 173.94-11.01 172.54-13.28 172.54-17.29L172.54-17.29Q172.54-21.24 173.08-25.17 173.62-29.1 174.45-32.96L174.45-32.96 184.75-32.86Q183.92-29.79 183.29-26.61 182.65-23.44 182.65-20.21L182.65-20.21Q182.65-18.51 182.9-17.43 183.14-16.36 183.78-15.7 184.41-15.04 185.53-14.79 186.66-14.55 188.37-14.55L188.37-14.55Q189.05-14.55 190.05-14.65 191.05-14.75 192.1-14.92 193.15-15.09 194.1-15.38 195.05-15.67 195.59-16.11L195.59-16.11Q195.79-16.26 195.93-17.09 196.08-17.92 196.18-19.07 196.28-20.21 196.32-21.53 196.37-22.85 196.4-24.02 196.42-25.2 196.42-26.05 196.42-26.9 196.42-27.15L196.42-27.15Q196.42-28.81 196.42-30.44 196.42-32.08 196.32-33.74L196.32-33.74Q198.72-33.5 201.04-33.33 203.36-33.15 205.75-33.06L205.75-33.06Q205.94-28.32 206.16-23.68 206.38-19.04 206.63-14.31L206.63-14.31Q206.72-13.13 206.72-11.94 206.72-10.74 206.72-9.62ZM315.86-5.76L321.38-0.54 316.4 3.22 309.27-1.86Q308.34-1.32 307.42-0.78 306.49-0.24 305.56 0.24L305.56 0.24Q302.63 1.81 299.72 2.66 296.82 3.52 293.45 3.52L293.45 3.52Q291.84 3.52 290.2 3.32 288.57 3.13 286.96 2.73L286.96 2.73Q285.98 2.54 285.3 2.27 284.61 2 284.05 1.64 283.49 1.27 282.98 0.73 282.46 0.2 281.88-0.54L281.88-0.54Q281.24-1.37 281.1-2.44 280.95-3.52 280.95-4.49L280.95-4.49Q280.95-5.91 281.15-7.35 281.34-8.79 281.73-10.16L281.73-10.16Q281.98-11.08 282.95-12.52 283.93-13.96 285.15-15.45 286.37-16.94 287.52-18.26 288.67-19.58 289.3-20.26L289.3-20.26Q288.91-20.56 288.08-21.24 287.25-21.92 286.32-22.73 285.39-23.54 284.61-24.29 283.83-25.05 283.64-25.44L283.64-25.44Q283.25-26.17 283.25-27.25L283.25-27.25Q283.25-28.08 283.47-29.37 283.68-30.66 284.08-32.03 284.47-33.4 284.98-34.57 285.49-35.74 286.13-36.28L286.13-36.28Q286.81-36.91 288.37-37.23 289.93-37.55 291.72-37.7 293.5-37.84 295.16-37.89 296.82-37.94 297.8-37.99L297.8-37.99Q298.19-38.04 298.63-38.04 299.07-38.04 299.51-38.04L299.51-38.04Q300.73-38.04 302.24-37.87 303.75-37.7 305.27-37.28 306.78-36.87 308.15-36.21 309.51-35.55 310.39-34.57L310.39-34.57Q310.64-34.33 310.69-33.76 310.74-33.2 310.74-32.91L310.74-32.91Q310.74-31.69 310.44-30.32 310.15-28.96 309.76-27.78L309.76-27.78 300.63-27.29Q300.68-28.03 300.7-28.74 300.73-29.44 300.73-30.13L300.73-30.13Q300.73-30.22 300.7-30.74 300.68-31.25 300.65-31.84 300.63-32.42 300.55-32.91 300.48-33.4 300.34-33.45L300.34-33.45Q299.94-33.59 299.58-33.62 299.21-33.64 298.77-33.64L298.77-33.64Q298.48-33.64 297.8-33.62 297.11-33.59 296.33-33.52 295.55-33.45 294.89-33.35 294.23-33.25 294.04-33.15L294.04-33.15Q293.55-32.91 293.45-32.18 293.35-31.45 293.35-31.01L293.35-31.01Q293.35-30.57 293.4-30.1 293.45-29.64 293.55-29.2L293.55-29.2Q293.74-28.22 294.5-26.9 295.26-25.59 296.21-24.27 297.16-22.95 298.16-21.78 299.16-20.61 299.85-19.92L299.85-19.92Q300.97-18.75 302.34-17.58 303.7-16.41 305.14-15.28 306.59-14.16 308.05-13.09 309.51-12.01 310.83-11.08L310.83-11.08Q311.57-11.52 312.59-12.23 313.62-12.94 314.15-13.67L314.15-13.67Q314.5-14.11 314.84-14.53 315.18-14.94 315.57-15.33L315.57-15.33 320.79-10.64Q319.67-9.23 318.47-8.08 317.28-6.93 315.86-5.76L315.86-5.76ZM304.88-7.37L304.88-7.37Q302.09-9.52 299.38-11.67 296.67-13.82 293.89-16.02L293.89-16.02Q293.5-15.58 292.82-14.75 292.13-13.92 291.47-13.01 290.81-12.11 290.33-11.18 289.84-10.25 289.84-9.62L289.84-9.62Q289.84-8.45 290.74-7.32 291.64-6.2 292.91-5.3 294.18-4.39 295.6-3.83 297.01-3.27 298.04-3.27L298.04-3.27Q298.28-3.27 298.46-3.3 298.63-3.32 298.87-3.42L298.87-3.42Q299.41-3.61 300.26-4.13 301.12-4.64 302-5.25 302.87-5.86 303.66-6.42 304.44-6.98 304.88-7.37ZM421.58-36.23L422.12-29.74Q417.33-29.49 412.62-29.22 407.91-28.96 403.13-28.56L403.13-28.56 403.03-24.71 415.63-25.44Q415.87-23.78 415.99-22.17 416.11-20.56 416.11-18.9L416.11-18.9Q416.11-18.21 416.09-17.48 416.06-16.75 416.06-16.06L416.06-16.06 404.35-13.96 405.08-7.91Q408.79-8.15 412.48-8.62 416.16-9.08 419.92-9.42L419.92-9.42Q420.26-6.98 420.61-4.52 420.95-2.05 421.58 0.29L421.58 0.29Q414.65 0.24 407.81 0.32 400.98 0.39 394.04 0.39L394.04 0.39Q394.19-5.32 394.39-10.99 394.58-16.65 394.58-22.41L394.58-22.41 394.58-23.34Q394.58-26.66 394.48-29.96 394.39-33.25 394.29-36.62L394.29-36.62Q398.15-36.57 401.98-36.6 405.81-36.62 409.72-36.62L409.72-36.62Q412.7-36.62 415.65-36.5 418.6-36.38 421.58-36.23L421.58-36.23ZM478.89-14.5L478.89-14.5Q478.89-13.18 478.89-11.84 478.89-10.5 478.79-9.18L478.79-9.18 467.9-8.5Q468.09-11.04 468.22-13.53 468.34-16.02 468.34-18.6L468.34-18.6Q468.34-18.85 468.34-19.43 468.34-20.02 468.29-20.68 468.24-21.34 468.19-21.92 468.14-22.51 468.09-22.75L468.09-22.75Q467.85-23.44 467.58-23.93 467.31-24.41 466.95-24.71 466.58-25 466.04-25.12 465.51-25.24 464.73-25.24L464.73-25.24Q464.14-25.24 463.24-25.15 462.33-25.05 461.41-24.85 460.48-24.66 459.65-24.37 458.82-24.07 458.48-23.68L458.48-23.68 458.38-9.28Q458.28-9.47 457.82-9.47 457.35-9.47 457.16-9.47L457.16-9.47Q455.69-9.47 454.13-9.35 452.57-9.23 451.1-9.03L451.1-9.03Q450.47-14.79 449.98-20.51 449.49-26.22 448.86-31.98L448.86-31.98Q449.83-32.03 450.81-32.06 451.79-32.08 452.76-32.08L452.76-32.08Q454.03-32.08 455.33-32.01 456.62-31.93 457.89-31.88L457.89-31.88 458.23-28.13Q459.6-30.37 461.94-31.88 464.29-33.4 466.97-33.4L466.97-33.4Q468.34-33.4 469.8-33.25 471.27-33.11 472.61-32.67 473.95-32.23 475.15-31.45 476.35-30.66 477.18-29.44L477.18-29.44Q477.57-28.86 477.84-27.71 478.1-26.56 478.3-25.12 478.5-23.68 478.62-22.07 478.74-20.46 478.79-18.99 478.84-17.53 478.86-16.33 478.89-15.14 478.89-14.5ZM517.54-32.67L517.54-32.67Q517.54-31.69 517.1-30.86 516.66-30.03 515.97-29.37 515.29-28.71 514.41-28.34 513.53-27.98 512.61-27.98L512.61-27.98Q511.63-27.98 510.77-28.42 509.92-28.86 509.28-29.54 508.65-30.22 508.31-31.13 507.97-32.03 507.97-33.01L507.97-33.01Q507.97-34.86 509.31-36.13 510.65-37.4 512.51-37.4L512.51-37.4Q513.44-37.4 514.34-37.04 515.24-36.67 515.95-36.01 516.66-35.35 517.1-34.5 517.54-33.64 517.54-32.67ZM518.56-22.8L518.56-18.16Q518.56-14.26 518.56-10.45 518.56-6.64 518.51-2.73L518.51-2.73Q518.51-1.46 518.46-0.2 518.42 1.07 518.42 2.34L518.42 2.34Q518.42 3.47 518.32 4.79 518.22 6.1 517.9 7.35 517.59 8.59 516.88 9.57 516.17 10.55 514.9 10.94L514.9 10.94Q514.46 11.08 513.04 11.18 511.63 11.28 510.02 11.33 508.41 11.38 506.97 11.38 505.53 11.38 505.04 11.38L505.04 11.38Q504.3 11.38 503.57 11.35 502.84 11.33 502.16 11.33L502.16 11.33Q502.06 9.47 501.74 7.79 501.42 6.1 501.13 4.25L501.13 4.25 505.96 3.81Q506.65 3.76 507.45 3.71 508.26 3.66 508.94 3.44 509.63 3.22 510.07 2.71 510.51 2.2 510.51 1.22L510.51 1.22Q510.51-1.03 510.31-3.27 510.12-5.52 509.97-7.76L509.97-7.76Q509.72-11.43 509.43-15.09 509.14-18.75 508.85-22.51L508.85-22.51Q509.38-22.46 509.87-22.46 510.36-22.46 510.9-22.46L510.9-22.46Q512.8-22.46 514.73-22.58 516.66-22.71 518.56-22.8L518.56-22.8ZM584.85-19.34L584.85-19.34Q584.85-18.95 584.85-18.58 584.85-18.21 584.8-17.82L584.8-17.82Q584.75-17.14 584.56-15.58 584.36-14.01 584.02-12.33 583.68-10.64 583.19-9.23 582.7-7.81 582.12-7.42L582.12-7.42Q581.82-7.23 580.14-7.08 578.45-6.93 576.04-6.79 573.62-6.64 570.79-6.54 567.96-6.45 565.39-6.37 562.83-6.3 560.9-6.25 558.97-6.2 558.34-6.2L558.34-6.2Q558.04-6.2 557.34-6.2 556.63-6.2 555.85-6.23 555.06-6.25 554.38-6.3 553.7-6.35 553.4-6.45L553.4-6.45Q552.72-6.69 552.04-7.25 551.35-7.81 550.77-8.52 550.18-9.23 549.72-9.99 549.25-10.74 549.06-11.43L549.06-11.43Q548.91-11.96 548.81-13.06 548.72-14.16 548.67-15.36 548.62-16.55 548.6-17.68 548.57-18.8 548.57-19.38L548.57-19.38Q548.57-20.31 548.62-21.95 548.67-23.58 548.91-25.29 549.16-27 549.62-28.49 550.08-29.98 550.96-30.57L550.96-30.57Q551.35-30.81 552.43-31.01 553.5-31.2 554.97-31.35 556.43-31.49 558.09-31.57 559.75-31.64 561.34-31.67 562.93-31.69 564.29-31.69 565.66-31.69 566.49-31.64L566.49-31.64Q567.22-31.59 568.59-31.57 569.96-31.54 571.64-31.49 573.33-31.45 575.13-31.32 576.94-31.2 578.5-31.01 580.06-30.81 581.26-30.49 582.46-30.18 582.85-29.74L582.85-29.74Q583.48-29.05 583.87-27.69 584.26-26.32 584.48-24.78 584.7-23.24 584.78-21.75 584.85-20.26 584.85-19.34ZM574.5-18.31L574.5-18.31Q574.5-18.9 574.45-19.68 574.4-20.46 574.3-21.26 574.21-22.07 574.01-22.83 573.81-23.58 573.52-24.07L573.52-24.07Q573.13-24.71 572.01-25.05 570.89-25.39 569.54-25.56 568.2-25.73 566.91-25.78 565.61-25.83 564.98-25.83L564.98-25.83Q564.64-25.83 563.76-25.81 562.88-25.78 561.93-25.73 560.97-25.68 560.14-25.56 559.31-25.44 559.07-25.29L559.07-25.29Q558.63-25 558.39-24.39 558.14-23.78 558.02-23.05 557.9-22.31 557.87-21.61 557.85-20.9 557.85-20.46L557.85-20.46Q557.85-20.02 557.92-18.87 557.99-17.72 558.12-16.43 558.24-15.14 558.43-14.06 558.63-12.99 558.92-12.7L558.92-12.7Q559.26-12.3 560.22-12.06 561.17-11.82 562.27-11.65 563.37-11.47 564.39-11.4 565.42-11.33 565.86-11.33L565.86-11.33Q566.64-11.33 567.71-11.38 568.79-11.43 569.88-11.62 570.98-11.82 571.96-12.16 572.94-12.5 573.52-13.09L573.52-13.09Q573.86-13.43 574.06-14.11 574.25-14.79 574.35-15.58 574.45-16.36 574.47-17.11 574.5-17.87 574.5-18.31ZM648.11-9.62L648.11-9.62Q648.11-9.08 648.11-8.06 648.11-7.03 648.06-5.74 648.01-4.44 647.94-3.05 647.87-1.66 647.77-0.42 647.67 0.83 647.5 1.78 647.33 2.73 647.13 3.13L647.13 3.13Q646.3 4.44 645.6 5.15 644.89 5.86 644.06 6.15 643.23 6.45 642.18 6.47 641.13 6.49 639.71 6.49L639.71 6.49Q635.02 6.49 630.39 6.13 625.75 5.76 621.11 5.27L621.11 5.27 621.11-1.42Q621.55-1.42 623.04-1.44 624.53-1.46 626.53-1.51 628.53-1.56 630.78-1.66 633.02-1.76 634.98-1.9 636.93-2.05 638.34-2.25 639.76-2.44 640.1-2.73L640.1-2.73Q640.54-3.08 640.81-3.78 641.08-4.49 641.2-5.27 641.32-6.05 641.37-6.84 641.42-7.62 641.42-8.11L641.42-8.11Q641.42-8.59 641.42-9.03 641.42-9.47 641.37-10.01L641.37-10.01Q640.64-8.35 639.42-7.52 638.2-6.69 636.68-6.35 635.17-6.01 633.51-5.98 631.85-5.96 630.34-5.96L630.34-5.96Q627.16-5.96 624.21-6.23 621.25-6.49 618.98-7.62 616.71-8.74 615.32-11.01 613.93-13.28 613.93-17.29L613.93-17.29Q613.93-21.24 614.47-25.17 615-29.1 615.84-32.96L615.84-32.96 626.14-32.86Q625.31-29.79 624.67-26.61 624.04-23.44 624.04-20.21L624.04-20.21Q624.04-18.51 624.28-17.43 624.53-16.36 625.16-15.7 625.8-15.04 626.92-14.79 628.04-14.55 629.75-14.55L629.75-14.55Q630.43-14.55 631.44-14.65 632.44-14.75 633.49-14.92 634.54-15.09 635.49-15.38 636.44-15.67 636.98-16.11L636.98-16.11Q637.17-16.26 637.32-17.09 637.47-17.92 637.56-19.07 637.66-20.21 637.71-21.53 637.76-22.85 637.78-24.02 637.81-25.2 637.81-26.05 637.81-26.9 637.81-27.15L637.81-27.15Q637.81-28.81 637.81-30.44 637.81-32.08 637.71-33.74L637.71-33.74Q640.1-33.5 642.42-33.33 644.74-33.15 647.13-33.06L647.13-33.06Q647.33-28.32 647.55-23.68 647.77-19.04 648.01-14.31L648.01-14.31Q648.11-13.13 648.11-11.94 648.11-10.74 648.11-9.62Z" opacity="1" transform="matrix(1,0,0,1,0,0)" fill="#ffffff" class="undefined-text-1" data-fill-palette-color="secondary" id="text-1"></path></svg></g></svg></g></svg></g></svg></g></svg></g></svg></g></svg></g></svg></g></svg><rect width="395.52" height="247.2" fill="none" stroke="none" visibility="hidden"></rect></g></svg></g></svg>